<svg id="Layer_1" data-name="Layer 1" xmlns="http://www.w3.org/2000/svg" width="153.95" height="43.31" viewBox="0 0 153.95 43.31"><defs><style>.cls-1{fill:#808285;}.cls-2{fill:#231f20;}</style></defs><title>mikesmagslogo</title><g id="lptTWg.tif"><path class="cls-1" d="M18.65,54.34q0-1.86,0-3.72l1-2Q25.36,37.74,31,26.82a1.86,1.86,0,0,1,1.86-1.12c1.22,0.05,2.45.13,3.67,0.14a38.79,38.79,0,0,0,9.66-1.19,35.46,35.46,0,0,0,7.13-2.8H54a0.48,0.48,0,0,0,.12.1,1.69,1.69,0,0,1,.95,2.42c-0.35.78-.69,1.57-1,2.36L52.54,30.2a4.24,4.24,0,0,0,.52.12c1,0.09,1.93.2,2.9,0.24a1.69,1.69,0,0,1,1.59,2.55c-0.41.89-.85,1.78-1.28,2.67l-0.46,1a23.76,23.76,0,0,0,2.59.24A1.75,1.75,0,0,1,60,39.6Q54.51,51.75,49,63.91a1.83,1.83,0,0,1-2.15,1.23L43,64.75A78.5,78.5,0,0,1,32.64,63,35.38,35.38,0,0,1,24,60a11.4,11.4,0,0,1-4.31-3.59A18.54,18.54,0,0,1,18.65,54.34ZM50.36,26.85L49.85,27c-1,.32-2.09.68-3.15,0.94a41.79,41.79,0,0,1-12.45,1.17,0.87,0.87,0,0,0-1,.55Q28.2,39.51,23.07,49.34l-0.2.42c0.19,0,.33.08,0.47,0.09,1.95,0.19,3.89.44,5.85,0.56a32,32,0,0,0,7.29-.3,10.58,10.58,0,0,0,4.09-1.38,1.42,1.42,0,0,0,.51-0.58q4.56-10.4,9.09-20.82Zm0.82,6.46L51,33.68q-3.54,8.13-7.1,16.25a2.83,2.83,0,0,1-.74,1,8.91,8.91,0,0,1-1.55,1,17.24,17.24,0,0,1-6.5,1.69,46.4,46.4,0,0,1-9.2-.13l-1-.09a1,1,0,0,0,.4.24,32.12,32.12,0,0,0,7.45,1.6,78.6,78.6,0,0,0,9.75.46,0.6,0.6,0,0,0,.63-0.41q5-10.53,10.11-21.05l0.22-.47ZM26.69,57.58l0,0.06c0.65,0.26,1.3.53,2,.77a49.22,49.22,0,0,0,9.12,2.25c2.7,0.41,5.42.69,8.13,1a0.57,0.57,0,0,0,.69-0.41q4.67-10.37,9.37-20.73c0.06-.14.11-0.28,0.17-0.43a12,12,0,0,1-1.31-.29,0.46,0.46,0,0,0-.66.33Q49.94,49,45.7,57.8A1.93,1.93,0,0,1,43.86,59c-1,0-2.06,0-3.09,0A72.36,72.36,0,0,1,30,58.22C28.86,58,27.78,57.8,26.69,57.58Z" transform="translate(-18.65 -21.85)"/><path class="cls-1" d="M29.21,43.27c0.06-.14.08-0.23,0.13-0.31,0.6-1.09,1.25-2.14,1.78-3.26a4.2,4.2,0,0,1,3.33-2.35,1.59,1.59,0,0,0,1.5-1.15,0.75,0.75,0,0,0-.08-0.56,2,2,0,0,1-.29-2.14,3.54,3.54,0,0,1,1.5-2,3.66,3.66,0,0,1,3.37-.07,1.69,1.69,0,0,1,.83,2.06,4.1,4.1,0,0,1-1.69,2.68,1.77,1.77,0,0,0-.52.87,0.39,0.39,0,0,0,.4.49,5.59,5.59,0,0,0,1.25.16c1.5,0,1.71.87,1.12,2.18-0.9,2-2.69,2.78-4.66,3.24a21.4,21.4,0,0,1-6.52.3Z" transform="translate(-18.65 -21.85)"/><path class="cls-1" d="M40.33,43.87c-0.53,1.05-1,2-1.48,2.93a1.19,1.19,0,0,1-2,.11c-0.31-.4-0.54-0.45-0.91-0.1s-0.58.69-.89,1a1.82,1.82,0,0,1-.63.47,0.64,0.64,0,0,1-.9-0.38,0.71,0.71,0,0,0-1.23-.28c-0.21.18-.36,0.43-0.56,0.63a0.57,0.57,0,0,1-1-.24,0.9,0.9,0,0,0-1.56-.45,0.54,0.54,0,0,0-.12.11,1.68,1.68,0,0,1-2.13.47c0.51-1,1-2,1.54-3a0.68,0.68,0,0,1,.53-0.25,8.58,8.58,0,0,1,1.17.17c0.28,0,.27.24,0.23,0.45a2.45,2.45,0,0,0-.15.69,0.79,0.79,0,0,0,.29.58,0.72,0.72,0,0,0,.64-0.13,4.74,4.74,0,0,0,.68-0.91A1.22,1.22,0,0,1,33,45.17a0.43,0.43,0,0,1,.45.56,0.54,0.54,0,0,0,0,.25,0.84,0.84,0,0,0,.23.47,0.69,0.69,0,0,0,.57-0.08,1.66,1.66,0,0,0,.46-0.59,1.39,1.39,0,0,1,1.11-.8c0.22,0,.44-0.08.66-0.13s0.66-.14.75,0.38c0,0.25.41,0.27,0.66,0a3.88,3.88,0,0,1,.6-0.53C39.06,44.45,39.64,44.2,40.33,43.87Z" transform="translate(-18.65 -21.85)"/></g><path class="cls-2" d="M76.72,56.41q0,0.3-.6.3h-9.9q-0.42,0-.42-0.25t0.42-.25h1a1.86,1.86,0,0,0,1.68-.48,8.21,8.21,0,0,0,.09-1.8V37.63q-1,2.49-2.55,7.92l-2.61,9.18q-0.48,1.68-.78,1.68a1,1,0,0,1-.6-0.84l-1.92-5.76Q59.86,47.74,56.8,38.2V53.76q0,1.35,0,1.61a0.63,0.63,0,0,0,.27.44,2.24,2.24,0,0,0,1.53.36q1.08,0,1.08.33t-0.45.21l-2.67-.12a13.36,13.36,0,0,0-1.59,0q-1.2.08-1.62,0.08-0.63,0-.63-0.27t0.51-.24q1.2,0,1.44,0a1.11,1.11,0,0,0,1.08-.69,7.74,7.74,0,0,0,.09-1.5V39.64a7.32,7.32,0,0,0-.28-2.81q-0.29-.41-2.15-0.41-0.48,0-.48-0.27t0.51-.27h6.46l0.33,0q2.56,8.29,4.34,13.77l4.05-13.81h7.29c0.4,0,.6.09,0.6,0.25s-0.12.28-.36,0.25H75.49a3,3,0,0,0-1.69.24,1.33,1.33,0,0,0-.44,1.17v17A1.12,1.12,0,0,0,73.92,56a5.81,5.81,0,0,0,1.68.13Q76.72,56.11,76.72,56.41Z" transform="translate(-18.65 -21.85)"/><path class="cls-2" d="M83.56,56.44a0.22,0.22,0,0,1-.27.21H75.72c-0.24,0-.36-0.06-0.36-0.19a0.77,0.77,0,0,1,.69-0.17,2.13,2.13,0,0,0,1.2-.23,2.24,2.24,0,0,0,.18-1.19V46.22a2.72,2.72,0,0,0-.2-1.37,1.83,1.83,0,0,0-1.18-.23,4.62,4.62,0,0,1-.74,0,0.19,0.19,0,0,1-.1-0.21q0-.21.45-0.21a14.79,14.79,0,0,0,5.64-1q0.06,0.36.15,2v9.45A2.54,2.54,0,0,0,81.68,56a3.07,3.07,0,0,0,1.54.21C83.45,56.23,83.56,56.3,83.56,56.44Zm-2.1-19a2,2,0,0,1-.58,1.44,1.9,1.9,0,0,1-1.41.6A2,2,0,0,1,78,38.89a1.93,1.93,0,0,1-.58-1.44A1.8,1.8,0,0,1,78,36.07a2.12,2.12,0,0,1,1.5-.54,1.89,1.89,0,0,1,1.38.54A1.81,1.81,0,0,1,81.46,37.42Z" transform="translate(-18.65 -21.85)"/><path class="cls-2" d="M98.47,56.44c0,0.14-.37.21-1.11,0.21H90.94c-0.28,0-.42-0.07-0.42-0.21s0.27-.22.81-0.24q0.51,0,.51-0.33a10.47,10.47,0,0,0-1.26-2.34q-0.36-.54-1-1.68-0.47-.84-1.35-2.19v4.42a8.59,8.59,0,0,0,.1,1.85,0.64,0.64,0,0,0,.66.27h0.53c0.2,0,.29.07,0.29,0.22s-0.11.22-.33,0.22h-7c-0.22,0-.33-0.07-0.33-0.21s0.26-.22.78-0.24A2.27,2.27,0,0,0,84,56a4,4,0,0,0,.13-1.5V38.74a2.42,2.42,0,0,0-.26-1.44,2.11,2.11,0,0,0-1.38-.24q-0.58,0-.58-0.22a0.2,0.2,0,0,1,.12-0.22,7.33,7.33,0,0,1,.87-0.06,10.67,10.67,0,0,0,4.26-.78,1.92,1.92,0,0,1,.72-0.27,7.79,7.79,0,0,1,.15,1.62l0.12,3.21v8.91a17.05,17.05,0,0,0,1.55-1.61l1.34-1.55a13.32,13.32,0,0,0,1.43-1.76,0.18,0.18,0,0,0-.18-0.18q-0.18,0-1.2-.06-0.69,0-.69-0.24t0.36-.21h4.62q0.54,0,.54.18a1.8,1.8,0,0,1-1.23.24,1.89,1.89,0,0,0-1.32.54q-0.93.9-2.37,2.52l3.44,5.23q0.27,0.45.88,1.35l0.45,0.66,0.49,0.73,0.25,0.35a2.27,2.27,0,0,0,.54.64,1.63,1.63,0,0,0,.8.13Q98.47,56.2,98.47,56.44Z" transform="translate(-18.65 -21.85)"/><path class="cls-2" d="M108.36,53a3.33,3.33,0,0,1-.78,1.74A5.18,5.18,0,0,1,103.21,57a6.8,6.8,0,0,1-5-1.92,6.6,6.6,0,0,1-2-4.92,6.8,6.8,0,0,1,1.89-4.9,6.27,6.27,0,0,1,4.71-2,6.07,6.07,0,0,1,3.27.84,4.28,4.28,0,0,1,1.95,2.67,9.4,9.4,0,0,1,.18,1.29q-0.69.08-5.55,0.12-0.75,0-1.89.06-0.09,1.08-.09,1.82,0,3.5,1.47,5a2.9,2.9,0,0,0,2.13.87,3.37,3.37,0,0,0,2-.72,4.6,4.6,0,0,0,1.48-1.86,0.87,0.87,0,0,1,.39-0.57C108.33,52.78,108.36,52.84,108.36,53Zm-3.78-5.25a9.29,9.29,0,0,0-.33-3.19,1.28,1.28,0,0,0-1.26-.89q-1.83,0-2.1,4.08h3.69Z" transform="translate(-18.65 -21.85)"/><path class="cls-2" d="M117.22,52.48A4.44,4.44,0,0,1,116,55.73,4.25,4.25,0,0,1,112.82,57a6.82,6.82,0,0,1-2.27-.48,5.6,5.6,0,0,0-1.41-.39,0.72,0.72,0,0,0-.75.43,0.74,0.74,0,0,1-.27.43,0.17,0.17,0,0,1-.18-0.21,5.25,5.25,0,0,1,0-.57,18.55,18.55,0,0,0,.07-2V52.72c0-.22,0-0.33.15-0.33s0.21,0.15.27,0.45A4.34,4.34,0,0,0,110,55.49a4.23,4.23,0,0,0,2.81,1.06A2.1,2.1,0,0,0,115,54.34a1.75,1.75,0,0,0-.57-1.32,7.5,7.5,0,0,0-2.25-1A7.87,7.87,0,0,1,109,50.21a3.8,3.8,0,0,1-1-2.72,4.13,4.13,0,0,1,1.2-3,4,4,0,0,1,2.94-1.23,10.74,10.74,0,0,1,2.28.42,1.61,1.61,0,0,0,.36.06,1.08,1.08,0,0,0,1-.81,0.19,0.19,0,0,1,.15-0.15c0.14,0,.21.12,0.21,0.36l0,0.57a2,2,0,0,0,0,.42,21.89,21.89,0,0,0,.15,2.52v0.15c0,0.16-.06.24-0.18,0.24a0.31,0.31,0,0,1-.24-0.27q-0.87-3.06-3.54-3.06a2.46,2.46,0,0,0-1.63.54,1.72,1.72,0,0,0-.64,1.38,1.51,1.51,0,0,0,.54,1.23,7.76,7.76,0,0,0,2.1,1,10.33,10.33,0,0,1,3.69,1.92A3.61,3.61,0,0,1,117.22,52.48Z" transform="translate(-18.65 -21.85)"/><path class="cls-2" d="M139.5,56.41q0,0.3-.6.3H129q-0.42,0-.42-0.25T129,56.2h1a1.86,1.86,0,0,0,1.68-.48,8.24,8.24,0,0,0,.09-1.8V37.63q-1,2.49-2.55,7.92l-2.61,9.18q-0.48,1.68-.78,1.68a1,1,0,0,1-.6-0.84l-1.92-5.76q-0.69-2.07-3.75-11.61V53.76q0,1.35,0,1.61a0.62,0.62,0,0,0,.27.44,2.24,2.24,0,0,0,1.53.36q1.08,0,1.08.33t-0.45.21l-2.67-.12a13.36,13.36,0,0,0-1.59,0q-1.2.08-1.62,0.08-0.63,0-.63-0.27T116,56.2q1.2,0,1.44,0a1.11,1.11,0,0,0,1.08-.69,7.78,7.78,0,0,0,.09-1.5V39.64a7.32,7.32,0,0,0-.29-2.81q-0.29-.41-2.15-0.41-0.48,0-.48-0.27t0.51-.27h6.46l0.33,0q2.56,8.29,4.34,13.77l4.05-13.81h7.29c0.4,0,.6.09,0.6,0.25s-0.12.28-.36,0.25h-0.69a3,3,0,0,0-1.7.24,1.33,1.33,0,0,0-.44,1.17v17a1.12,1.12,0,0,0,.57,1.25,5.81,5.81,0,0,0,1.68.13Q139.5,56.11,139.5,56.41Z" transform="translate(-18.65 -21.85)"/><path class="cls-2" d="M151.56,55a1.16,1.16,0,0,1-.48.67,4.52,4.52,0,0,1-3.18,1.19,2.57,2.57,0,0,1-1.79-.52,3.06,3.06,0,0,1-.73-1.85A4.1,4.1,0,0,1,141.69,57a2.79,2.79,0,0,1-2.08-.81,2.87,2.87,0,0,1-.79-2.1q0-3.78,6.48-4.47V49a18.18,18.18,0,0,0-.21-3.69l0-.15a2,2,0,0,0-2.13-1.5,2.21,2.21,0,0,0-1.59.57,1.59,1.59,0,0,0-.6,1.11q0,0.3.72,0.36A1.13,1.13,0,0,1,142.53,47a1.48,1.48,0,0,1-.43,1.09,1.52,1.52,0,0,1-1.12.44,2,2,0,0,1-1.42-.52,1.76,1.76,0,0,1-.56-1.33,3,3,0,0,1,1.29-2.34,5.2,5.2,0,0,1,3.39-1.05q3.12,0,4.35,1.11a4.33,4.33,0,0,1,1,3.24v5.13q0,1.5,0,1.74,0.15,1.26.87,1.26a2.07,2.07,0,0,0,1.26-.72,0.41,0.41,0,0,1,.24-0.15A0.13,0.13,0,0,1,151.56,55Zm-6.27-3.57V50q-2.91.57-2.91,3.3,0,2.1,1.44,2.1a1.17,1.17,0,0,0,1.14-.9A9.76,9.76,0,0,0,145.29,51.46Z" transform="translate(-18.65 -21.85)"/><path class="cls-2" d="M165.6,45.22a1.38,1.38,0,0,1-1.53,1.59,1.2,1.2,0,0,1-1.41-1.29,1.34,1.34,0,0,1,.1-0.48,1.25,1.25,0,0,0,.11-0.39,0.46,0.46,0,0,0-.54-0.51,1,1,0,0,0-.68.31,1,1,0,0,0-.31.71,1.86,1.86,0,0,0,.24.66,4.58,4.58,0,0,1,.57,2.07,4.49,4.49,0,0,1-2.06,3.75,6.48,6.48,0,0,1-3.89,1.14,7.67,7.67,0,0,1-2.21-.38,2.1,2.1,0,0,0-.57-0.1,1.44,1.44,0,0,0-1,.35,1.1,1.1,0,0,0-.4.87q0,1.09,1.71,1.09a29.89,29.89,0,0,0,3.83-.36,8.35,8.35,0,0,1,1.2-.09,4.47,4.47,0,0,1,3.11,1A3.63,3.63,0,0,1,163,58a5.6,5.6,0,0,1-2.26,4.68,9.77,9.77,0,0,1-6.1,1.74,8.28,8.28,0,0,1-4.28-.95,2.91,2.91,0,0,1-1.58-2.6q0-2.49,3.66-3-2.19-.87-2.19-2.64,0-2.4,2.82-3.27a4.35,4.35,0,0,1-2.76-4,4.18,4.18,0,0,1,1.75-3.4,6.7,6.7,0,0,1,4.28-1.38,6.12,6.12,0,0,1,4.53,1.62,3.35,3.35,0,0,1,2.7-1.47Q165.6,43.36,165.6,45.22Zm-4.17,14.52q0-2.22-2.61-2.22a21.68,21.68,0,0,0-3.3.33,15,15,0,0,1-2.19.24h-0.45a3.83,3.83,0,0,0-.84,2.52q0,3.18,4.14,3.18a5.94,5.94,0,0,0,3.74-1.17A3.52,3.52,0,0,0,161.43,59.74Zm-2.91-11.56q0-4.58-2.19-4.58t-2.19,4.15a8.61,8.61,0,0,0,.54,3.58,1.86,1.86,0,0,0,1.8,1.08,1.61,1.61,0,0,0,1.61-.92A8.71,8.71,0,0,0,158.52,48.17Z" transform="translate(-18.65 -21.85)"/><path class="cls-2" d="M172.59,52.48a4.44,4.44,0,0,1-1.23,3.26A4.25,4.25,0,0,1,168.2,57a6.82,6.82,0,0,1-2.27-.48,5.6,5.6,0,0,0-1.41-.39,0.72,0.72,0,0,0-.75.43,0.74,0.74,0,0,1-.27.43,0.17,0.17,0,0,1-.18-0.21,5.25,5.25,0,0,1,0-.57,18.55,18.55,0,0,0,.07-2V52.72c0-.22,0-0.33.15-0.33s0.21,0.15.27,0.45a4.34,4.34,0,0,0,1.52,2.66,4.23,4.23,0,0,0,2.81,1.06,2.1,2.1,0,0,0,2.21-2.22,1.75,1.75,0,0,0-.57-1.32,7.5,7.5,0,0,0-2.25-1,7.87,7.87,0,0,1-3.25-1.82,3.8,3.8,0,0,1-1-2.72,4.13,4.13,0,0,1,1.2-3,4,4,0,0,1,2.94-1.23,10.74,10.74,0,0,1,2.28.42,1.61,1.61,0,0,0,.36.06,1.08,1.08,0,0,0,1-.81,0.19,0.19,0,0,1,.15-0.15c0.14,0,.21.12,0.21,0.36l0,0.57a2,2,0,0,0,0,.42,21.89,21.89,0,0,0,.15,2.52v0.15c0,0.16-.06.24-0.18,0.24a0.31,0.31,0,0,1-.24-0.27q-0.87-3.06-3.54-3.06a2.46,2.46,0,0,0-1.63.54,1.72,1.72,0,0,0-.64,1.38,1.51,1.51,0,0,0,.54,1.23,7.76,7.76,0,0,0,2.1,1,10.33,10.33,0,0,1,3.69,1.92A3.61,3.61,0,0,1,172.59,52.48Z" transform="translate(-18.65 -21.85)"/></svg>